<?xml version="1.0" encoding="UTF-8" standalone="no"?>
<!-- Generator: Adobe Illustrator 18.1.1, SVG Export Plug-In . SVG Version: 6.00 Build 0)  -->

<svg
   xmlns:dc="http://purl.org/dc/elements/1.1/"
   xmlns:cc="http://creativecommons.org/ns#"
   xmlns:rdf="http://www.w3.org/1999/02/22-rdf-syntax-ns#"
   xmlns:svg="http://www.w3.org/2000/svg"
   xmlns="http://www.w3.org/2000/svg"
   xmlns:sodipodi="http://sodipodi.sourceforge.net/DTD/sodipodi-0.dtd"
   xmlns:inkscape="http://www.inkscape.org/namespaces/inkscape"
   version="1.1"
   id="Layer_1"
   x="0px"
   y="0px"
   viewBox="-409 225 15.765685 15.639231"
   enable-background="new -409 225 51 51"
   xml:space="preserve"
   inkscape:version="0.91 r13725"
   sodipodi:docname="ico_resize_handle.svg"
   width="15.765685"
   height="15.639231"><metadata
     id="metadata9"><rdf:RDF><cc:Work
         rdf:about=""><dc:format>image/svg+xml</dc:format><dc:type
           rdf:resource="http://purl.org/dc/dcmitype/StillImage" /><dc:title></dc:title></cc:Work></rdf:RDF></metadata><defs
     id="defs7" /><sodipodi:namedview
     pagecolor="#ffffff"
     bordercolor="#666666"
     borderopacity="1"
     objecttolerance="10"
     gridtolerance="10"
     guidetolerance="10"
     inkscape:pageopacity="0"
     inkscape:pageshadow="2"
     inkscape:window-width="1920"
     inkscape:window-height="1022"
     id="namedview5"
     showgrid="false"
     fit-margin-top="0"
     fit-margin-left="0"
     fit-margin-right="0"
     fit-margin-bottom="0"
     inkscape:zoom="26.176816"
     inkscape:cx="-5.1080182"
     inkscape:cy="5.9546495"
     inkscape:window-x="0"
     inkscape:window-y="0"
     inkscape:window-maximized="1"
     inkscape:current-layer="Layer_1" /><path
     d="m -393.4,225.23923 c -0.2,-0.2 -0.4,-0.3 -0.7,-0.2 l -4.9,1 c -0.4,0.1 -0.7,0.5 -0.6,0.9 0.1,0.4 0.5,0.7 0.9,0.6 l 2.2,-0.5 -3.1,3.1 -9.4,0 0,10.5 10.5,0 0,-9.4 3.1,-3.1 -0.6,2.3 c -0.1,0.4 0.1,0.8 0.5,0.9 0.4,0.1 0.8,-0.1 0.9,-0.5 l 1.3,-4.8 c 0.1,-0.3 0.1,-0.6 -0.1,-0.8 z"
     id="path3"
     inkscape:connector-curvature="0"
     style="fill:#231f20" /></svg>