<?xml version="1.0" encoding="utf-8"?>
<!-- Generator: Adobe Illustrator 18.1.1, SVG Export Plug-In . SVG Version: 6.00 Build 0)  -->
<svg version="1.1" id="Layer_1" xmlns="http://www.w3.org/2000/svg" xmlns:xlink="http://www.w3.org/1999/xlink" x="0px" y="0px"
	 viewBox="0 0 870 500" enable-background="new 0 0 870 500" xml:space="preserve">
<path fill="#050606" d="M449.1,250l92.9-92.9c3.9-3.9,3.9-10.2,0-14.1c-3.9-3.9-10.2-3.9-14.1,0L435,235.9l-92.9-92.9
	c-3.9-3.9-10.2-3.9-14.1,0c-3.9,3.9-3.9,10.2,0,14.1l92.9,92.9l-92.9,92.9c-3.9,3.9-3.9,10.2,0,14.1c3.9,3.9,10.2,3.9,14.1,0
	l92.9-92.9l92.9,92.9c3.9,3.9,10.2,3.9,14.1,0c3.9-3.9,3.9-10.2,0-14.1L449.1,250z"/>
<path fill="#050606" d="M435,14.7v8c31.4,0,61.3,6.4,88.5,17.9c40.8,17.2,75.5,46.1,100,82.4c24.5,36.3,38.8,80,38.8,127.1
	c0,31.4-6.4,61.3-17.9,88.5c-17.2,40.8-46.1,75.5-82.4,100c-36.3,24.5-80,38.8-127.1,38.8c-31.4,0-61.3-6.4-88.5-17.9
	c-40.8-17.2-75.5-46.1-100-82.4c-24.5-36.3-38.8-80-38.8-127.1c0-31.4,6.4-61.3,17.9-88.5c17.2-40.8,46.1-75.5,82.4-100
	c36.3-24.5,80-38.8,127.1-38.8V14.7v-8c-33.6,0-65.6,6.8-94.7,19.1c-43.7,18.5-80.8,49.3-107,88.1c-26.2,38.8-41.6,85.7-41.6,136
	c0,33.6,6.8,65.6,19.1,94.7c18.5,43.7,49.3,80.8,88.1,107c38.8,26.2,85.7,41.6,136,41.6c33.6,0,65.6-6.8,94.7-19.1
	c43.7-18.5,80.8-49.3,107-88.1c26.2-38.8,41.6-85.7,41.6-136c0-33.6-6.8-65.6-19.1-94.7c-18.5-43.7-49.3-80.8-88.1-107
	C532.2,22,485.4,6.7,435,6.7V14.7z"/>
</svg>
