<?xml version="1.0" encoding="utf-8"?>
<!-- Generator: Adobe Illustrator 17.1.0, SVG Export Plug-In . SVG Version: 6.00 Build 0)  -->
<!DOCTYPE svg PUBLIC "-//W3C//DTD SVG 1.1//EN" "http://www.w3.org/Graphics/SVG/1.1/DTD/svg11.dtd">
<svg version="1.1" id="Layer_1" xmlns="http://www.w3.org/2000/svg" xmlns:xlink="http://www.w3.org/1999/xlink" x="0px" y="0px"
	 viewBox="0 0 52 52" enable-background="new 0 0 52 52" xml:space="preserve">
<symbol  id="circle" viewBox="-23 -23 46 46">
	<path id="circle-1_7_" fill="none" d="M0,22c12.2,0,22-9.8,22-22S12.2-22,0-22s-22,9.8-22,22S-12.2,22,0,22z"/>
	<path id="circle-1_6_" fill="none" stroke="#000000" stroke-width="2" stroke-miterlimit="10" d="M0,22c12.2,0,22-9.8,22-22
		S12.2-22,0-22s-22,9.8-22,22S-12.2,22,0,22z"/>
</symbol>
<g>
	<g>
		<path d="M32.4,26.3C32.4,26.3,32.4,26.3,32.4,26.3c0.6,1,1,2.1,1,3.2c0,2-1.2,3.7-3.2,4.6c-0.4,0.2-0.9,0.3-1.4,0.4l-0.2,0
			c-0.2,0-0.3,0-0.4,0.1c-3.9,0.6-7.8-1.6-9.4-5.2c-1-2.2-1.1-4.6-0.2-6.9c0.8-2.2,2.5-4,4.7-5c0.4-0.2,0.7-0.3,1.1-0.3
			c0.6-0.1,1.2,0,1.8,0.3c0.8,0.3,1.2,1,1.3,1.7c0.1,0.7-0.3,1.1-0.6,1.6c-0.1,0.2-0.2,0.3-0.3,0.4c-0.5,0.8-0.6,1.5-0.4,2.1
			c0.1,0.4,0.5,0.8,1.3,1c0.5,0.1,1,0.1,1.4,0.1c0.4,0,0.8,0,1.1,0.1l0,0c-0.1,0.3-0.1,0.5,0,0.8c0,0.1,0,0.2,0,0.2l-0.4,0.9
			c-0.1,0.2,0,0.4,0.2,0.5c0,0,0,0,0,0c0.1,0,0.3,0.1,0.5-0.2c0,0,0,0,0,0l0.4-0.9c0-0.1,0.1-0.1,0.2-0.2c0.4-0.1,0.6-0.5,0.8-0.8
			c0,0,2-4.2,2-4.2L33,20.6l-0.9-0.4c0,0-0.8,1.6-1.5,3.2c-0.1,0-0.2-0.1-0.3-0.1c-0.5-0.1-1-0.1-1.4-0.1c-0.4,0-0.8,0-1.1-0.1
			c-0.1,0-0.3-0.1-0.3-0.1c0-0.1,0-0.4,0.3-0.8c0.1-0.1,0.1-0.2,0.3-0.4c0.4-0.6,1-1.4,0.9-2.6c-0.1-1.3-0.9-2.4-2.1-2.9
			c-0.8-0.4-1.7-0.5-2.6-0.4c-0.5,0.1-1,0.2-1.5,0.4c-2.5,1.1-4.5,3.2-5.5,5.8c-1,2.6-0.9,5.4,0.3,8c1.9,4.2,6.4,6.7,11,6
			c0.1,0,0.3,0,0.4-0.1c0.1,0,0.2,0,0.2,0c0.6-0.1,1.2-0.3,1.8-0.5c2.5-1.1,4-3.4,4.1-5.9c0-1.6-0.6-3.3-1.7-4.5
			C32.8,25.8,32.4,26.3,32.4,26.3z"/>
		<path d="M29.3,29.7c-0.7,0.3-1,1.1-0.7,1.8c0.3,0.7,1.1,1,1.8,0.7c0.7-0.3,1-1.1,0.7-1.8C30.9,29.7,30,29.4,29.3,29.7z"/>
		<circle cx="25.6" cy="31.9" r="1.3"/>
		<circle cx="22.1" cy="29.5" r="1.3"/>
		<circle cx="20.9" cy="25.4" r="1.2"/>
		<circle cx="22.1" cy="21.3" r="1.1"/>
		<path d="M31.9,19.7l2.2,1.1c0.1,0,0.1,0,0.2,0c0.1,0,0.1-0.1,0.1-0.1l0.3-0.7c0.1-0.1,0-0.3-0.1-0.4l-2.2-1.1
			c-0.1-0.1-0.3,0-0.4,0.1l-0.3,0.7C31.7,19.4,31.8,19.6,31.9,19.7z"/>
		<path d="M35.4,17.2c0.1-0.2,0.1-0.4,0-0.6c-0.1-0.2-0.2-0.4-0.4-0.5l0,0c-0.4-0.2-0.9,0-1.1,0.4l-0.8,1.8l1.4,0.7L35.4,17.2z"/>
	</g>
</g>
<use xlink:href="#circle"  width="46" height="46" x="-23" y="-23" transform="matrix(1 0 0 -1 26 26)" overflow="visible"/>
</svg>
