<?xml version="1.0" encoding="utf-8"?>
<!-- Generator: Adobe Illustrator 18.1.1, SVG Export Plug-In . SVG Version: 6.00 Build 0)  -->
<svg version="1.1" xmlns="http://www.w3.org/2000/svg" xmlns:xlink="http://www.w3.org/1999/xlink" x="0px" y="0px"
	 viewBox="168 225 52 52" enable-background="new 168 225 52 52" xml:space="preserve">
<symbol  id="circle" viewBox="-23 -23 46 46">
	<path id="circle-1_7_" fill="none" d="M0,22c12.2,0,22-9.8,22-22S12.2-22,0-22s-22,9.8-22,22S-12.2,22,0,22z"/>
	<path id="circle-1_6_" fill="none" stroke="#000000" stroke-width="2" stroke-miterlimit="10" d="M0,22c12.2,0,22-9.8,22-22
		S12.2-22,0-22s-22,9.8-22,22S-12.2,22,0,22z"/>
</symbol>
<g id="scale_x5F_more">
</g>
<g id="scale_x5F_less">
</g>
<g id="add_x5F_photo">
</g>
<g id="add_x5F_text">
</g>
<g id="preview">
</g>
<g id="gallery">
</g>
<g id="rotate_x5F_more">
</g>
<g id="rotate_x5F_less">
</g>
<g id="delete">
	<g>
		<g>
			<path d="M202.7,244.7c-0.1-0.1-0.2-0.1-0.3-0.1h-3.9l-0.9-2.1c-0.1-0.3-0.4-0.6-0.7-0.8c-0.3-0.2-0.7-0.3-1-0.3h-4
				c-0.3,0-0.7,0.1-1,0.3c-0.3,0.2-0.6,0.5-0.7,0.8l-0.9,2.1h-3.9c-0.1,0-0.2,0-0.3,0.1c-0.1,0.1-0.1,0.2-0.1,0.3v0.8
				c0,0.1,0,0.2,0.1,0.3c0.1,0.1,0.2,0.1,0.3,0.1h1.2v12c0,0.7,0.2,1.3,0.6,1.8c0.4,0.5,0.9,0.7,1.4,0.7h10.5c0.6,0,1-0.3,1.4-0.8
				c0.4-0.5,0.6-1.1,0.6-1.8v-11.9h1.2c0.1,0,0.2,0,0.3-0.1c0.1-0.1,0.1-0.2,0.1-0.3V245C202.9,244.8,202.8,244.7,202.7,244.7z
				 M191.8,243.1c0.1-0.1,0.1-0.1,0.2-0.1h4c0.1,0,0.2,0.1,0.2,0.1l0.6,1.5h-5.6L191.8,243.1z M199.6,258.1c0,0.2,0,0.4-0.1,0.5
				c-0.1,0.2-0.1,0.3-0.2,0.3c-0.1,0.1-0.1,0.1-0.1,0.1h-10.5c0,0-0.1,0-0.1-0.1c-0.1-0.1-0.1-0.2-0.2-0.3c-0.1-0.2-0.1-0.3-0.1-0.5
				v-11.9h11.3L199.6,258.1L199.6,258.1z"/>
			<path d="M190.4,256.6h0.8c0.1,0,0.2,0,0.3-0.1c0.1-0.1,0.1-0.2,0.1-0.3V249c0-0.1,0-0.2-0.1-0.3c-0.1-0.1-0.2-0.1-0.3-0.1h-0.8
				c-0.1,0-0.2,0-0.3,0.1c-0.1,0.1-0.1,0.2-0.1,0.3v7.2c0,0.1,0,0.2,0.1,0.3C190.2,256.6,190.3,256.6,190.4,256.6z"/>
			<path d="M193.6,256.6h0.8c0.1,0,0.2,0,0.3-0.1c0.1-0.1,0.1-0.2,0.1-0.3V249c0-0.1,0-0.2-0.1-0.3c-0.1-0.1-0.2-0.1-0.3-0.1h-0.8
				c-0.1,0-0.2,0-0.3,0.1c-0.1,0.1-0.1,0.2-0.1,0.3v7.2c0,0.1,0,0.2,0.1,0.3C193.4,256.6,193.5,256.6,193.6,256.6z"/>
			<path d="M196.8,256.6h0.8c0.1,0,0.2,0,0.3-0.1c0.1-0.1,0.1-0.2,0.1-0.3V249c0-0.1,0-0.2-0.1-0.3c-0.1-0.1-0.2-0.1-0.3-0.1h-0.8
				c-0.1,0-0.2,0-0.3,0.1c-0.1,0.1-0.1,0.2-0.1,0.3v7.2c0,0.1,0,0.2,0.1,0.3C196.6,256.6,196.7,256.6,196.8,256.6z"/>
		</g>
	</g>
	<use xlink:href="#circle"  width="46" height="46" x="-23" y="-23" transform="matrix(1 0 0 -1 194 251)" overflow="visible"/>
</g>
<g id="color">
</g>
<g id="layouts">
</g>
<g id="fonts">
</g>
</svg>
