<?xml version="1.0" encoding="utf-8"?>
<!-- Generator: Adobe Illustrator 18.1.1, SVG Export Plug-In . SVG Version: 6.00 Build 0)  -->
<svg version="1.1" xmlns="http://www.w3.org/2000/svg" xmlns:xlink="http://www.w3.org/1999/xlink" x="0px" y="0px"
	 viewBox="384 225 52 52" enable-background="new 384 225 52 52" xml:space="preserve">
<symbol  id="circle" viewBox="-23 -23 46 46">
	<path id="circle-1_7_" fill="none" d="M0,22c12.2,0,22-9.8,22-22S12.2-22,0-22s-22,9.8-22,22S-12.2,22,0,22z"/>
	<path id="circle-1_6_" fill="none" stroke="#000000" stroke-width="2" stroke-miterlimit="10" d="M0,22c12.2,0,22-9.8,22-22
		S12.2-22,0-22s-22,9.8-22,22S-12.2,22,0,22z"/>
</symbol>
<g id="scale_x5F_more">
</g>
<g id="scale_x5F_less">
</g>
<g id="add_x5F_photo">
</g>
<g id="add_x5F_text">
</g>
<g id="preview">
</g>
<g id="gallery">
</g>
<g id="rotate_x5F_more">
</g>
<g id="rotate_x5F_less">
</g>
<g id="delete">
</g>
<g id="color">
</g>
<g id="layouts">
</g>
<g id="fonts">
	<g>
		<path d="M410.6,243.1c0-0.1-0.1-0.2-0.2-0.2h-2.7c-0.1,0-0.2,0.1-0.2,0.2l-6,15.2c-0.1,0.2,0,0.4,0.1,0.5c0.1,0.2,0.3,0.3,0.5,0.3
			h1.5c0.3,0,0.5-0.1,0.6-0.2c0.2-0.1,0.3-0.3,0.4-0.5l1.1-3c0.1-0.2,0.3-0.3,0.5-0.3h6c0.2,0,0.4,0.1,0.4,0.3l1.1,3
			c0.1,0.2,0.2,0.4,0.4,0.5c0.1,0.1,0.2,0.1,0.4,0.2v-6.6L410.6,243.1z M406.8,253c-0.1,0-0.1,0-0.2-0.1c0-0.1-0.1-0.1,0-0.2
			l1.9-5.1c0.1-0.2,0.2-0.5,0.3-0.9c0,0,0-0.1,0-0.1c0-0.1,0.1-0.2,0.3-0.2c0.1,0,0.2,0.1,0.3,0.2c0,0,0,0.1,0,0.1
			c0.1,0.3,0.2,0.6,0.3,0.8l1.9,5.1c0,0.1,0,0.1,0,0.2c0,0.1-0.1,0.1-0.2,0.1H406.8z"/>
		<rect x="416.3" y="241.2" width="2.3" height="19.7"/>
	</g>
	<use xlink:href="#circle"  width="46" height="46" x="-23" y="-23" transform="matrix(1 0 0 -1 410 251)" overflow="visible"/>
</g>
</svg>
