<?xml version="1.0" encoding="utf-8"?>
<!-- Generator: Adobe Illustrator 18.1.1, SVG Export Plug-In . SVG Version: 6.00 Build 0)  -->
<svg version="1.1" id="Layer_1" xmlns="http://www.w3.org/2000/svg" xmlns:xlink="http://www.w3.org/1999/xlink" x="0px" y="0px"
	 viewBox="0 0 870 500" enable-background="new 0 0 870 500" xml:space="preserve">
<circle fill="#67453B" cx="435" cy="250" r="243.5"/>
<g>
	<g>
		<path fill="#DBCEBF" d="M504.2,137.2H365.8c-24,0-43.6,19.5-43.6,43.6v138.4c0,24,19.5,43.6,43.6,43.6h138.4
			c24.1,0,43.6-19.5,43.6-43.6v-92.4v-46C547.8,156.7,528.3,137.2,504.2,137.2z M516.7,163.2h5v38.2l-38.1,0.1l-0.2-38.2
			L516.7,163.2z M402.8,226.8c7.2-10,19-16.5,32.2-16.5c13.3,0,25,6.6,32.2,16.5c4.7,6.5,7.5,14.5,7.5,23.1
			c0,21.9-17.8,39.7-39.7,39.7c-21.9,0-39.7-17.8-39.7-39.7C395.3,241.4,398.1,233.4,402.8,226.8z M525.8,319.2
			c0,11.9-9.7,21.6-21.6,21.6H365.8c-11.9,0-21.6-9.6-21.6-21.6v-92.4h33.7c-2.9,7.1-4.5,15-4.5,23.1c0,34,27.7,61.7,61.7,61.7
			c34.1,0,61.7-27.7,61.7-61.7c0-8.2-1.7-16-4.6-23.1h33.7V319.2z"/>
		<path fill="#67453B" d="M435,289.7c21.9,0,39.7-17.8,39.7-39.7c0-8.6-2.8-16.6-7.5-23.1c-7.2-10-19-16.5-32.2-16.5
			c-13.2,0-25,6.5-32.2,16.5c-4.7,6.5-7.5,14.5-7.5,23.1C395.3,271.9,413.1,289.7,435,289.7z"/>
		<polygon fill="#67453B" points="521.7,201.4 521.7,163.2 516.7,163.2 483.4,163.3 483.6,201.5 		"/>
		<path fill="#67453B" d="M496.7,250c0,34-27.7,61.7-61.7,61.7c-34,0-61.7-27.7-61.7-61.7c0-8.2,1.6-16,4.5-23.1h-33.7v92.4
			c0,11.9,9.7,21.6,21.6,21.6h138.4c11.9,0,21.6-9.6,21.6-21.6v-92.4h-33.7C495,234,496.7,241.8,496.7,250z"/>
	</g>
	<g>
		<defs>
			<path id="SVGID_1_" d="M504.2,137.2H365.8c-24,0-43.6,19.5-43.6,43.6v138.4c0,24,19.5,43.6,43.6,43.6h138.4
				c24.1,0,43.6-19.5,43.6-43.6v-92.4v-46C547.8,156.7,528.3,137.2,504.2,137.2z"/>
		</defs>
		<clipPath id="SVGID_2_">
			<use xlink:href="#SVGID_1_"  overflow="visible"/>
		</clipPath>
		<g clip-path="url(#SVGID_2_)">
			<rect x="344.2" y="133.6" fill="#ED3551" width="8.4" height="93.3"/>
			<rect x="352.6" y="133.6" fill="#FABC2A" width="8.4" height="93.3"/>
			<rect x="361" y="133.6" fill="#67C089" width="8.4" height="93.3"/>
			<rect x="369.4" y="133.6" fill="#547EBF" width="8.4" height="93.3"/>
		</g>
	</g>
</g>
</svg>
