<?xml version="1.0" encoding="utf-8"?>
<!-- Generator: Adobe Illustrator 18.1.1, SVG Export Plug-In . SVG Version: 6.00 Build 0)  -->
<svg version="1.1" xmlns="http://www.w3.org/2000/svg" xmlns:xlink="http://www.w3.org/1999/xlink" x="0px" y="0px"
	 viewBox="24 225 52 52" enable-background="new 24 225 52 52" xml:space="preserve">
<symbol  id="circle" viewBox="-23 -23 46 46">
	<path id="circle-1_7_" fill="none" d="M0,22c12.2,0,22-9.8,22-22S12.2-22,0-22s-22,9.8-22,22S-12.2,22,0,22z"/>
	<path id="circle-1_6_" fill="none" stroke="#000000" stroke-width="2" stroke-miterlimit="10" d="M0,22c12.2,0,22-9.8,22-22
		S12.2-22,0-22s-22,9.8-22,22S-12.2,22,0,22z"/>
</symbol>
<g id="scale_x5F_more">
</g>
<g id="scale_x5F_less">
</g>
<g id="add_x5F_photo">
</g>
<g id="add_x5F_text">
</g>
<g id="preview">
</g>
<g id="gallery">
</g>
<g id="rotate_x5F_more">
	<path d="M55.6,244.3c-0.4-0.3-0.9-0.2-1.2,0.2c-0.3,0.4-0.2,0.9,0.2,1.2c3.1,2.2,4.1,6.4,2.4,9.8c-0.9,1.9-2.5,3.2-4.5,3.9
		c-2,0.7-4.1,0.5-5.9-0.4c-1.9-0.9-3.2-2.5-3.9-4.5c-0.7-2-0.5-4.1,0.4-5.9c1.1-2.3,3.3-3.8,5.8-4.2c0,0,0,0,0.1,0l0,1.7
		c0,0.2,0.1,0.4,0.3,0.4c0.2,0.1,0.4,0,0.5-0.1l2.5-2.6c0.2-0.2,0.2-0.5,0-0.7l-2.6-2.5c-0.1-0.1-0.3-0.2-0.5-0.1
		c-0.1,0-0.1,0.1-0.2,0.1c-0.1,0.1-0.1,0.2-0.1,0.3l0,1.6c-0.1,0-0.2,0-0.3,0c-3.1,0.5-5.7,2.4-7.1,5.2c-2.4,4.7-0.5,10.4,4.2,12.8
		c1.4,0.7,2.8,1,4.3,1c3.5,0,6.9-1.9,8.5-5.3C60.6,252.1,59.4,247,55.6,244.3L55.6,244.3z M55.6,244.3"/>
	<use xlink:href="#circle"  width="46" height="46" x="-23" y="-23" transform="matrix(1 0 0 -1 50 251)" overflow="visible"/>
</g>
<g id="rotate_x5F_less">
</g>
<g id="delete">
</g>
<g id="color">
</g>
<g id="layouts">
</g>
<g id="fonts">
</g>
</svg>
