<?xml version="1.0" encoding="utf-8"?>
<!-- Generator: Adobe Illustrator 18.1.1, SVG Export Plug-In . SVG Version: 6.00 Build 0)  -->
<svg version="1.1" xmlns="http://www.w3.org/2000/svg" xmlns:xlink="http://www.w3.org/1999/xlink" x="0px" y="0px"
	 viewBox="96 225 52 52" enable-background="new 96 225 52 52" xml:space="preserve">
<symbol  id="circle" viewBox="-23 -23 46 46">
	<path id="circle-1_7_" fill="none" d="M0,22c12.2,0,22-9.8,22-22S12.2-22,0-22s-22,9.8-22,22S-12.2,22,0,22z"/>
	<path id="circle-1_6_" fill="none" stroke="#000000" stroke-width="2" stroke-miterlimit="10" d="M0,22c12.2,0,22-9.8,22-22
		S12.2-22,0-22s-22,9.8-22,22S-12.2,22,0,22z"/>
</symbol>
<g id="scale_x5F_more">
</g>
<g id="scale_x5F_less">
</g>
<g id="add_x5F_photo">
</g>
<g id="add_x5F_text">
</g>
<g id="preview">
</g>
<g id="gallery">
</g>
<g id="rotate_x5F_more">
</g>
<g id="rotate_x5F_less">
	<path d="M116.4,244.3c-3.8,2.7-5,7.8-2.9,12c1.7,3.3,5,5.3,8.5,5.3c1.4,0,2.9-0.3,4.3-1c4.7-2.4,6.6-8.1,4.2-12.8
		c-1.4-2.8-4-4.7-7.1-5.2c-0.1,0-0.2,0-0.3,0l0-1.6c0-0.1,0-0.2-0.1-0.3c0,0-0.1-0.1-0.2-0.1c-0.2-0.1-0.4,0-0.5,0.1l-2.6,2.5
		c-0.2,0.2-0.2,0.5,0,0.7l2.5,2.6c0.1,0.1,0.3,0.2,0.5,0.1c0.2-0.1,0.3-0.2,0.3-0.4l0-1.7c0,0,0,0,0.1,0c2.5,0.4,4.7,1.9,5.8,4.2
		c0.9,1.9,1.1,4,0.4,5.9c-0.7,2-2,3.6-3.9,4.5c-1.9,0.9-4,1.1-5.9,0.4c-2-0.7-3.6-2-4.5-3.9c-1.7-3.4-0.7-7.6,2.4-9.8
		c0.4-0.3,0.5-0.8,0.2-1.2C117.4,244.1,116.8,244,116.4,244.3L116.4,244.3z M116.4,244.3"/>
	<use xlink:href="#circle"  width="46" height="46" x="-23" y="-23" transform="matrix(1 0 0 -1 122 251)" overflow="visible"/>
</g>
<g id="delete">
</g>
<g id="color">
</g>
<g id="layouts">
</g>
<g id="fonts">
</g>
</svg>
