<?xml version="1.0" encoding="UTF-8" standalone="no"?>
<!-- Generator: Adobe Illustrator 18.1.1, SVG Export Plug-In . SVG Version: 6.00 Build 0)  -->

<svg
   xmlns:dc="http://purl.org/dc/elements/1.1/"
   xmlns:cc="http://creativecommons.org/ns#"
   xmlns:rdf="http://www.w3.org/1999/02/22-rdf-syntax-ns#"
   xmlns:svg="http://www.w3.org/2000/svg"
   xmlns="http://www.w3.org/2000/svg"
   xmlns:xlink="http://www.w3.org/1999/xlink"
   xmlns:sodipodi="http://sodipodi.sourceforge.net/DTD/sodipodi-0.dtd"
   xmlns:inkscape="http://www.inkscape.org/namespaces/inkscape"
   version="1.1"
   x="0px"
   y="0px"
   viewBox="-408 225 52 52"
   enable-background="new -408 225 52 52"
   xml:space="preserve"
   id="svg2"
   inkscape:version="0.91 r13725"
   sodipodi:docname="scale-p.svg"><metadata
     id="metadata45"><rdf:RDF><cc:Work
         rdf:about=""><dc:format>image/svg+xml</dc:format><dc:type
           rdf:resource="http://purl.org/dc/dcmitype/StillImage" /></cc:Work></rdf:RDF></metadata><defs
     id="defs43" /><sodipodi:namedview
     pagecolor="#ffffff"
     bordercolor="#666666"
     borderopacity="1"
     objecttolerance="10"
     gridtolerance="10"
     guidetolerance="10"
     inkscape:pageopacity="0"
     inkscape:pageshadow="2"
     inkscape:window-width="1920"
     inkscape:window-height="1022"
     id="namedview41"
     showgrid="false"
     inkscape:zoom="25.673415"
     inkscape:cx="20.033615"
     inkscape:cy="25.538059"
     inkscape:window-x="0"
     inkscape:window-y="0"
     inkscape:window-maximized="1"
     inkscape:current-layer="svg2" /><symbol
     id="circle"
     viewBox="-23 -23 46 46"><path
       id="circle-1_7_"
       fill="none"
       d="M0,22c12.2,0,22-9.8,22-22S12.2-22,0-22s-22,9.8-22,22S-12.2,22,0,22z" /><path
       id="circle-1_6_"
       fill="none"
       stroke="#000000"
       stroke-width="2"
       stroke-miterlimit="10"
       d="M0,22c12.2,0,22-9.8,22-22   S12.2-22,0-22s-22,9.8-22,22S-12.2,22,0,22z" /></symbol><g
     id="scale_x5F_more"><use
       xlink:href="#circle"
       width="46"
       height="46"
       x="-23"
       y="-23"
       transform="matrix(1 0 0 -1 -382 251)"
       overflow="visible"
       id="use8" /><g
       id="g10"><path
         d="M-380.4,242.8v6.7h6.3v3h-6.3v6.7h-3.2v-6.7h-6.3v-3h6.3v-6.7H-380.4z"
         id="path12" /></g></g><g
     id="scale_x5F_less" /><g
     id="add_x5F_photo" /><g
     id="add_x5F_text" /><g
     id="gallery" /><g
     id="rotate_x5F_more" /><g
     id="rotate_x5F_less" /><g
     id="delete" /><g
     id="color" /><g
     id="layouts" /><g
     id="fonts" /></svg>