<?xml version="1.0" encoding="utf-8"?>
<!-- Generator: Adobe Illustrator 18.1.1, SVG Export Plug-In . SVG Version: 6.00 Build 0)  -->
<svg version="1.1" xmlns="http://www.w3.org/2000/svg" xmlns:xlink="http://www.w3.org/1999/xlink" x="0px" y="0px"
	 viewBox="-120 225 52 52" enable-background="new -120 225 52 52" xml:space="preserve">
<symbol  id="circle" viewBox="-23 -23 46 46">
	<path id="circle-1_7_" fill="none" d="M0,22c12.2,0,22-9.8,22-22S12.2-22,0-22s-22,9.8-22,22S-12.2,22,0,22z"/>
	<path id="circle-1_6_" fill="none" stroke="#000000" stroke-width="2" stroke-miterlimit="10" d="M0,22c12.2,0,22-9.8,22-22
		S12.2-22,0-22s-22,9.8-22,22S-12.2,22,0,22z"/>
</symbol>
<g id="scale_x5F_more">
</g>
<g id="scale_x5F_less">
</g>
<g id="add_x5F_photo">
</g>
<g id="add_x5F_text">
</g>
<g id="preview">
	<g>
		<path d="M-98,261v-4h2v-12h-2v2h-4v-6h16v6h-4v-2h-2v12h2v4H-98z"/>
	</g>
	<use xlink:href="#circle"  width="46" height="46" x="-23" y="-23" transform="matrix(1 0 0 -1 -94 251)" overflow="visible"/>
</g>
<g id="gallery">
</g>
<g id="rotate_x5F_more">
</g>
<g id="rotate_x5F_less">
</g>
<g id="delete">
</g>
<g id="color">
</g>
<g id="layouts">
</g>
<g id="fonts">
</g>
</svg>
