<?xml version="1.0" encoding="UTF-8" standalone="no"?>
<!-- Generator: Adobe Illustrator 18.1.1, SVG Export Plug-In . SVG Version: 6.00 Build 0)  -->

<svg
   xmlns:dc="http://purl.org/dc/elements/1.1/"
   xmlns:cc="http://creativecommons.org/ns#"
   xmlns:rdf="http://www.w3.org/1999/02/22-rdf-syntax-ns#"
   xmlns:svg="http://www.w3.org/2000/svg"
   xmlns="http://www.w3.org/2000/svg"
   xmlns:xlink="http://www.w3.org/1999/xlink"
   xmlns:sodipodi="http://sodipodi.sourceforge.net/DTD/sodipodi-0.dtd"
   xmlns:inkscape="http://www.inkscape.org/namespaces/inkscape"
   version="1.1"
   x="0px"
   y="0px"
   viewBox="-408 225 52 52"
   enable-background="new -408 225 52 52"
   xml:space="preserve"
   id="svg2"
   inkscape:version="0.91 r13725"
   sodipodi:docname="step-3.svg"><metadata
     id="metadata45"><rdf:RDF><cc:Work
         rdf:about=""><dc:format>image/svg+xml</dc:format><dc:type
           rdf:resource="http://purl.org/dc/dcmitype/StillImage" /><dc:title></dc:title></cc:Work></rdf:RDF></metadata><defs
     id="defs43" /><sodipodi:namedview
     pagecolor="#ffffff"
     bordercolor="#666666"
     borderopacity="1"
     objecttolerance="10"
     gridtolerance="10"
     guidetolerance="10"
     inkscape:pageopacity="0"
     inkscape:pageshadow="2"
     inkscape:window-width="1920"
     inkscape:window-height="1022"
     id="namedview41"
     showgrid="false"
     inkscape:zoom="25.673415"
     inkscape:cx="20.033615"
     inkscape:cy="25.538059"
     inkscape:window-x="0"
     inkscape:window-y="0"
     inkscape:window-maximized="1"
     inkscape:current-layer="svg2" /><symbol
     id="circle"
     viewBox="-23 -23 46 46"><path
       id="circle-1_7_"
       fill="none"
       d="M0,22c12.2,0,22-9.8,22-22S12.2-22,0-22s-22,9.8-22,22S-12.2,22,0,22z" /><path
       id="circle-1_6_"
       fill="none"
       stroke="#000000"
       stroke-width="2"
       stroke-miterlimit="10"
       d="M0,22c12.2,0,22-9.8,22-22   S12.2-22,0-22s-22,9.8-22,22S-12.2,22,0,22z" /></symbol><g
     id="scale_x5F_less" /><g
     id="add_x5F_photo" /><g
     id="add_x5F_text" /><g
     id="preview"><g
       id="g18"><g
         id="g20"><defs
           id="defs22"><rect
             id="SVGID_3_"
             x="-393.7"
             y="243.4"
             width="23.3"
             height="15.3" /></defs><clipPath
           id="SVGID_2_"><use
             xlink:href="#SVGID_3_"
             overflow="visible"
             id="use26" /></clipPath><path
           clip-path="url(#SVGID_2_)"
           d="M-382,243.4c-5.1,0-9.6,3-11.6,7.4c-0.1,0.1-0.1,0.3,0,0.4c2,4.4,6.5,7.4,11.6,7.4     c5.1,0,9.6-3,11.6-7.4c0.1-0.1,0.1-0.3,0-0.4C-372.4,246.4-376.9,243.4-382,243.4L-382,243.4z M-382,256.2     c-2.9,0-5.3-2.4-5.3-5.3c0-2.9,2.4-5.3,5.3-5.3c2.9,0,5.3,2.4,5.3,5.3C-376.7,253.9-379.1,256.2-382,256.2L-382,256.2z      M-382,256.2"
           id="path28" /></g><path
         d="M-378.6,251c0,1.9-1.5,3.4-3.4,3.4c-1.9,0-3.4-1.5-3.4-3.4c0-1.9,1.5-3.4,3.4-3.4C-380.1,247.6-378.6,249.1-378.6,251    L-378.6,251z M-378.6,251"
         id="path30" /></g><use
       xlink:href="#circle"
       width="46"
       height="46"
       x="-23"
       y="-23"
       transform="matrix(1 0 0 -1 -382 251)"
       overflow="visible"
       id="use32" /></g><g
     id="gallery" /><g
     id="rotate_x5F_more" /><g
     id="rotate_x5F_less" /><g
     id="delete" /><g
     id="color" /><g
     id="layouts" /><g
     id="fonts" /></svg>