<?xml version="1.0" encoding="utf-8"?>
<!-- Generator: Adobe Illustrator 18.1.1, SVG Export Plug-In . SVG Version: 6.00 Build 0)  -->
<svg version="1.1" id="Layer_1" xmlns="http://www.w3.org/2000/svg" xmlns:xlink="http://www.w3.org/1999/xlink" x="0px" y="0px"
	 viewBox="0 0 870 500" enable-background="new 0 0 870 500" xml:space="preserve">
<circle fill="#FFFFFF" cx="435" cy="250" r="243.5"/>
<g>
	<path fill="#EF732C" d="M393.8,333.4c-12.5,0-22.6,10.1-22.6,22.6c0,12.5,10.1,22.6,22.6,22.6s22.6-10.1,22.6-22.6
		C416.4,343.6,406.3,333.4,393.8,333.4z"/>
	<path fill="#EF732C" d="M497,333.4c-12.5,0-22.6,10.1-22.6,22.6c0,12.5,10.1,22.6,22.6,22.6c12.6,0,22.7-10.1,22.7-22.6
		C519.7,343.6,509.5,333.4,497,333.4z"/>
	<path fill="#EF732C" d="M546,198.7c-1.4-1.8-3.5-2.8-5.7-2.8l-186.7,0c-3.2,0-6.2-2-7.4-5.1l-10.3-27.4c-0.8-2.1-2.7-3.8-5-4.2
		l-55.1-11.4l0.5,22.2l37.6,9.3c2.1,0.5,3.9,2.1,4.7,4.2l48.3,126.7c1.2,3.2,4.2,5.3,7.7,5.3h139.1c2.5,0,4.6-1.7,5.3-4.1
		l28.3-106.3C547.8,202.8,547.4,200.4,546,198.7z"/>
</g>
</svg>
