<?xml version="1.0" encoding="utf-8"?>
<!-- Generator: Adobe Illustrator 18.1.1, SVG Export Plug-In . SVG Version: 6.00 Build 0)  -->
<svg version="1.1" id="Layer_1" xmlns="http://www.w3.org/2000/svg" xmlns:xlink="http://www.w3.org/1999/xlink" x="0px" y="0px"
	 viewBox="0 0 870 500" enable-background="new 0 0 870 500" xml:space="preserve">
<circle fill="#1889D0" cx="435" cy="250" r="243.5"/>
<g>
	<path fill="#FFFFFF" d="M353.3,270.4c0-4.6-3.8-8.4-8.4-8.4c-4.6,0-8.4,3.8-8.4,8.4v75.4c0,4.6,3.8,8.4,8.4,8.4h180.1
		c4.6,0,8.4-3.8,8.4-8.4v-75.4c0-4.6-3.8-8.4-8.4-8.4s-8.4,3.8-8.4,8.4v67H353.3V270.4z"/>
	<path fill="#FFFFFF" d="M367.7,216.7c2.1,0,4.1-0.7,5.7-2.2l53.2-48.9v127.2c0,4.6,3.8,8.4,8.4,8.4s8.4-3.8,8.4-8.4V165.2
		l53.2,49.4c3.3,3.2,8.7,2.9,11.9-0.4c3.2-3.4,2.9-8.7-0.4-11.9l-67-62.1c-0.8-0.8-2-1.4-3.1-1.8c-1-0.3-2-0.6-2.9-0.6
		c-2.9,0-5.4,1.5-7,3.8L362,202.2c-3.3,3.2-3.6,8.5-0.4,11.9C363.2,215.8,365.5,216.7,367.7,216.7z"/>
</g>
</svg>
