<?xml version="1.0" encoding="UTF-8" standalone="no"?>
<!-- Generator: Adobe Illustrator 18.1.1, SVG Export Plug-In . SVG Version: 6.00 Build 0)  -->

<svg
   xmlns:dc="http://purl.org/dc/elements/1.1/"
   xmlns:cc="http://creativecommons.org/ns#"
   xmlns:rdf="http://www.w3.org/1999/02/22-rdf-syntax-ns#"
   xmlns:svg="http://www.w3.org/2000/svg"
   xmlns="http://www.w3.org/2000/svg"
   xmlns:sodipodi="http://sodipodi.sourceforge.net/DTD/sodipodi-0.dtd"
   xmlns:inkscape="http://www.inkscape.org/namespaces/inkscape"
   version="1.1"
   id="Layer_1"
   x="0px"
   y="0px"
   viewBox="0 0 870 500"
   enable-background="new 0 0 870 500"
   xml:space="preserve"
   inkscape:version="0.91 r13725"
   sodipodi:docname="url-link.svg"><metadata
     id="metadata3443"><rdf:RDF><cc:Work
         rdf:about=""><dc:format>image/svg+xml</dc:format><dc:type
           rdf:resource="http://purl.org/dc/dcmitype/StillImage" /><dc:title></dc:title></cc:Work></rdf:RDF></metadata><defs
     id="defs3441" /><sodipodi:namedview
     pagecolor="#ffffff"
     bordercolor="#666666"
     borderopacity="1"
     objecttolerance="10"
     gridtolerance="10"
     guidetolerance="10"
     inkscape:pageopacity="0"
     inkscape:pageshadow="2"
     inkscape:window-width="1920"
     inkscape:window-height="1031"
     id="namedview3439"
     showgrid="false"
     inkscape:zoom="0.36666667"
     inkscape:cx="435"
     inkscape:cy="250"
     inkscape:window-x="0"
     inkscape:window-y="0"
     inkscape:window-maximized="1"
     inkscape:current-layer="Layer_1" /><path
     id="f"
     fill="#FFFFFF"
     d="M452.5,363.3V259.9h34.7l5.2-40.3h-39.9v-25.7c0-11.7,3.2-19.6,20-19.6l21.3,0v-36  c-3.7-0.5-16.4-1.6-31.1-1.6c-30.8,0-51.8,18.8-51.8,53.2v29.7h-34.8v40.3h34.8v103.4H452.5z" /><g
     id="XMLID_7_"
     transform="matrix(7.5034965,0,0,7.5034965,140.22657,-45.001407)"><circle
       id="XMLID_4_"
       class="st0"
       cx="39.200001"
       cy="39.400002"
       r="32.5"
       style="fill:#1688ca" /><g
       id="XMLID_2_"><path
         id="XMLID_6_"
         class="st1"
         d="m 41.1,23 -4.5,4.5 c -2.3,2.3 -2.6,5.8 -0.9,8.4 -2.6,-1.7 -6.1,-1.4 -8.4,0.9 l -4.5,4.5 c -2.6,2.6 -2.6,6.9 0,9.5 l 5,5 c 2.6,2.6 6.9,2.6 9.5,0 l 4.5,-4.5 c 2.3,-2.3 2.6,-5.8 0.9,-8.4 2.6,1.7 6.1,1.4 8.4,-0.9 l 4.5,-4.5 c 2.6,-2.6 2.6,-6.9 0,-9.5 l -5,-5 c -2.7,-2.6 -6.9,-2.6 -9.5,0 z m 10.8,7.9 c 1,1 1,2.5 0,3.5 l -4,4 c -0.8,0.8 -2,0.9 -3,0.4 l -6.4,6.4 c 0.5,0.9 0.4,2.2 -0.4,3 l -4,4 c -1,1 -2.5,1 -3.5,0 l -4.3,-4.3 c -1,-1 -1,-2.5 0,-3.5 l 4,-4 c 0.8,-0.8 2.1,-0.9 3,-0.4 l 6.4,-6.4 c -0.6,-0.9 -0.4,-2.2 0.4,-3 l 4,-4 c 1,-1 2.5,-1 3.5,0 l 4.3,4.3 z"
         inkscape:connector-curvature="0"
         style="fill:#ffffff" /><path
         id="XMLID_1_"
         class="st1"
         d="M 47.1,35.1 34.9,47.3 c -0.7,0.7 -1.8,0.7 -2.5,0 l -1.1,-1.1 c -0.7,-0.7 -0.7,-1.8 0,-2.5 L 43.5,31.5 c 0.7,-0.7 1.8,-0.7 2.5,0 l 1.1,1.1 c 0.7,0.7 0.7,1.8 0,2.5 z"
         inkscape:connector-curvature="0"
         style="fill:#ffffff" /></g></g></svg>