<?xml version="1.0" encoding="utf-8"?>
<!-- Generator: Adobe Illustrator 18.1.1, SVG Export Plug-In . SVG Version: 6.00 Build 0)  -->
<svg version="1.1" xmlns="http://www.w3.org/2000/svg" xmlns:xlink="http://www.w3.org/1999/xlink" x="0px" y="0px"
	 viewBox="-264 225 52 52" enable-background="new -264 225 52 52" xml:space="preserve">
<symbol  id="circle" viewBox="-23 -23 46 46">
	<path id="circle-1_7_" fill="none" d="M0,22c12.2,0,22-9.8,22-22S12.2-22,0-22s-22,9.8-22,22S-12.2,22,0,22z"/>
	<path id="circle-1_6_" fill="none" stroke="#000000" stroke-width="2" stroke-miterlimit="10" d="M0,22c12.2,0,22-9.8,22-22
		S12.2-22,0-22s-22,9.8-22,22S-12.2,22,0,22z"/>
</symbol>
<g id="scale_x5F_more">
</g>
<g id="scale_x5F_less">
</g>
<g id="add_x5F_photo">
	<g>
		<g>
			<g>
				<defs>
					<rect id="SVGID_1_" x="-250.5" y="241" width="25" height="20"/>
				</defs>
				<clipPath id="SVGID_2_">
					<use xlink:href="#SVGID_1_"  overflow="visible"/>
				</clipPath>
				<path clip-path="url(#SVGID_2_)" d="M-226.1,241h-23.7c-0.4,0-0.7,0.3-0.7,0.6v18.7c0,0.4,0.3,0.6,0.7,0.6h23.7
					c0.4,0,0.7-0.3,0.7-0.6v-18.7C-225.5,241.3-225.8,241-226.1,241L-226.1,241z M-228,258.6h-20v-15.1h20V258.6z M-228,258.6"/>
			</g>
			<path d="M-245.5,257h15.1c0.3,0,0.6-0.3,0.6-0.6V253c0-0.2-0.1-0.3-0.2-0.4l-1.7-1.7c-0.2-0.2-0.6-0.2-0.8,0l-3.2,2.8l-5.5-4.9
				c-0.2-0.2-0.6-0.2-0.8,0c-0.8,0.6-2.5,1.9-4,3c-0.1,0.1-0.2,0.3-0.2,0.5v4.2C-246.1,256.7-245.9,257-245.5,257L-245.5,257z
				 M-245.5,257"/>
			<path d="M-235.5,251.5c0.8,0,1.4-0.6,1.4-1.3c0-0.7-0.6-1.3-1.4-1.3c-0.8,0-1.4,0.6-1.4,1.3
				C-236.9,250.9-236.3,251.5-235.5,251.5L-235.5,251.5z M-235.5,251.5"/>
		</g>
		<use xlink:href="#circle"  width="46" height="46" x="-23" y="-23" transform="matrix(1 0 0 -1 -238 251)" overflow="visible"/>
	</g>
</g>
<g id="add_x5F_text">
</g>
<g id="preview">
</g>
<g id="gallery">
</g>
<g id="rotate_x5F_more">
</g>
<g id="rotate_x5F_less">
</g>
<g id="delete">
</g>
<g id="color">
</g>
<g id="layouts">
</g>
<g id="fonts">
</g>
</svg>
